<svg width="25" height="25" viewBox="0 0 25 25" fill="none" xmlns="http://www.w3.org/2000/svg">
<path d="M21.8713 17.2343V17.2351C22.3843 20.1676 20.3405 22.2961 17.4928 22.7746C14.7418 23.2366 10.259 23.2366 7.50876 22.7746C4.66026 22.2961 2.61651 20.1676 3.13026 17.2351V17.2343C3.56526 14.7458 5.67501 13.1956 8.2505 13.3291C10.1323 13.4266 11.288 13.6711 12.6268 13.6711C13.9805 13.6711 14.8828 13.4258 16.751 13.3291C19.3265 13.1941 21.4363 14.7458 21.8713 17.2343ZM12.1505 2.12109C14.8565 2.12109 17.0503 4.31484 17.0503 7.02084C17.0503 9.72684 14.8565 11.9206 12.1505 11.9206C9.44451 11.9206 7.25001 9.72609 7.25001 7.02084C7.25001 4.31559 9.44376 2.12109 12.1505 2.12109Z" fill="#00A6FF"/>
</svg>
