<svg width="31" height="29" viewBox="0 0 31 29" fill="none" xmlns="http://www.w3.org/2000/svg">
<g clip-path="url(#clip0_1_51)">
<path fill-rule="evenodd" clip-rule="evenodd" d="M13.3726 1.45673C16.5386 1.45673 19.4234 2.66326 21.5915 4.64995H19.3962C17.6816 3.48878 15.6042 2.81748 13.3726 2.81748C11.15 2.81748 9.0726 3.48878 7.35806 4.64995H5.16271C7.33084 2.66326 10.2066 1.45673 13.3726 1.45673ZM21.5915 22.5937C19.4234 24.5713 16.5386 25.7869 13.3726 25.7869C10.2066 25.7869 7.33084 24.5713 5.16271 22.5937H7.35806C9.0726 23.7549 11.15 24.4262 13.3726 24.4262C15.6042 24.4262 17.6816 23.7549 19.3962 22.5937H21.5915ZM4.1104 5.85648H22.6438C24.6305 5.85648 26.2543 7.47124 26.2543 9.45794V12.9142H27.1161C28.3318 12.9142 29.3206 13.9121 29.3206 15.1187V19.8178C29.3206 19.8813 29.3206 19.9357 29.3115 19.9992C30.01 20.2804 30.4999 20.9699 30.4999 21.7682C30.4999 22.8296 29.6471 23.6914 28.5858 23.6914C27.5244 23.6914 26.6716 22.8296 26.6716 21.7682C26.6716 20.9336 27.2069 20.2169 27.9598 19.9629V15.1822C27.9598 14.6923 27.5607 14.2931 27.0708 14.2931H26.2543V17.7857C26.2543 19.7633 24.6305 21.3872 22.6438 21.3872H4.1104C2.12371 21.3872 0.499878 19.7633 0.499878 17.7857V9.45794C0.499878 7.47124 2.12371 5.85648 4.1104 5.85648ZM4.21019 7.12652H22.544C23.8957 7.12652 24.9934 8.23326 24.9934 9.58494V17.6587C24.9934 19.0104 23.8957 20.1081 22.544 20.1081H4.21019C2.85851 20.1081 1.76084 19.0104 1.76084 17.6587V9.58494C1.76084 8.23326 2.85851 7.12652 4.21019 7.12652ZM4.68192 9.04064H7.86607C8.60995 9.04064 9.21775 9.64844 9.21775 10.4014V16.8423C9.21775 17.5861 8.60995 18.203 7.86607 18.203H4.68192C3.93804 18.203 3.33024 17.5861 3.33024 16.8423V10.4014C3.33024 9.64844 3.93804 9.04064 4.68192 9.04064ZM6.21503 11.7077C6.04267 11.744 5.98824 11.8347 5.92473 11.9799C5.8703 12.1069 5.81587 12.2429 5.77052 12.3699C5.7433 12.4334 5.62537 12.7237 5.60723 12.76C5.56187 12.8235 5.51651 12.8326 5.41672 12.8417L4.63656 12.8961C4.45512 12.9142 4.35534 12.9777 4.30091 13.1138C4.27369 13.1864 4.26462 13.268 4.29183 13.3497C4.32812 13.4767 4.44605 13.5583 4.54584 13.64L4.99942 14.021C5.04478 14.0663 5.09921 14.0936 5.12643 14.1661C5.1355 14.2296 5.09921 14.3476 5.09014 14.4111L4.98128 14.8465C4.94499 14.9826 4.87242 15.1731 4.92685 15.3182C4.99942 15.5087 5.22622 15.6176 5.46208 15.4724L6.15153 15.0461C6.2876 14.9644 6.26039 14.9554 6.32389 15.0007C6.55068 15.1459 6.77747 15.2729 7.00426 15.418C7.11312 15.4906 7.24013 15.5813 7.41249 15.5178C7.53042 15.4724 7.64835 15.3545 7.64835 15.1912C7.64835 15.1005 7.57578 14.8465 7.54856 14.7467C7.51228 14.5925 7.47599 14.4474 7.4397 14.3022C7.39434 14.1208 7.46692 14.0936 7.62114 13.9666C7.75721 13.8486 7.93864 13.6853 8.07472 13.5855C8.12008 13.5493 8.17451 13.4948 8.21079 13.4495C8.30151 13.3225 8.28337 13.141 8.20172 13.0322C8.09286 12.8961 7.94772 12.9052 7.7935 12.887C7.70278 12.887 7.07684 12.8417 7.02241 12.8235C6.9589 12.7963 6.93169 12.7419 6.90447 12.6693L6.57789 11.8801C6.52346 11.7712 6.38739 11.6714 6.21503 11.7077ZM11.785 9.04064H14.9692C15.7131 9.04064 16.3209 9.64844 16.3209 10.4014V16.8423C16.3209 17.5861 15.7131 18.203 14.9692 18.203H11.785C11.0412 18.203 10.4334 17.5861 10.4334 16.8423V10.4014C10.4334 9.64844 11.0412 9.04064 11.785 9.04064ZM13.3181 11.7077C13.1458 11.744 13.0914 11.8347 13.0278 11.9799C12.9734 12.1069 12.919 12.2429 12.8646 12.3699C12.8464 12.4334 12.7285 12.7237 12.7103 12.76C12.665 12.8235 12.6196 12.8326 12.5198 12.8417L11.7397 12.8961C11.5582 12.9142 11.4585 12.9777 11.404 13.1138C11.3768 13.1864 11.3677 13.268 11.3859 13.3497C11.4312 13.4767 11.5492 13.5583 11.649 13.64L12.1025 14.021C12.1479 14.0663 12.2023 14.0936 12.2295 14.1661C12.2386 14.2296 12.2023 14.3476 12.1933 14.4111L12.0844 14.8465C12.0481 14.9826 11.9755 15.1731 12.03 15.3182C12.1025 15.5087 12.3293 15.6176 12.5652 15.4724L13.2546 15.0461C13.3907 14.9644 13.3635 14.9554 13.427 15.0007C13.6538 15.1459 13.8806 15.2729 14.1074 15.418C14.2162 15.4906 14.3432 15.5813 14.5156 15.5178C14.6335 15.4724 14.7515 15.3545 14.7515 15.1912C14.7515 15.1005 14.6789 14.8465 14.6517 14.7467C14.6154 14.5925 14.5791 14.4474 14.5428 14.3022C14.4975 14.1208 14.57 14.0936 14.7243 13.9666C14.8603 13.8486 15.0418 13.6853 15.1778 13.5855C15.2232 13.5493 15.2776 13.4948 15.3139 13.4495C15.4046 13.3225 15.3865 13.141 15.3048 13.0322C15.196 12.8961 15.0508 12.9052 14.8966 12.887C14.8059 12.887 14.18 12.8417 14.1255 12.8235C14.062 12.7963 14.0348 12.7419 14.0076 12.6693L13.681 11.8801C13.6266 11.7712 13.4905 11.6714 13.3181 11.7077ZM18.8881 9.04064H22.0723C22.8162 9.04064 23.424 9.64844 23.424 10.4014V16.8423C23.424 17.5861 22.8162 18.203 22.0723 18.203H18.8881C18.1443 18.203 17.5365 17.5861 17.5365 16.8423V10.4014C17.5365 9.64844 18.1443 9.04064 18.8881 9.04064ZM20.4213 11.7077C20.2489 11.744 20.1945 11.8347 20.131 11.9799C20.0765 12.1069 20.0221 12.2429 19.9767 12.3699C19.9495 12.4334 19.8316 12.7237 19.8135 12.76C19.7681 12.8235 19.7227 12.8326 19.6229 12.8417L18.8428 12.8961C18.6614 12.9142 18.5616 12.9777 18.5071 13.1138C18.4799 13.1864 18.4708 13.268 18.4981 13.3497C18.5344 13.4767 18.6523 13.5583 18.7521 13.64L19.2057 14.021C19.251 14.0663 19.3054 14.0936 19.3327 14.1661C19.3417 14.2296 19.3054 14.3476 19.2964 14.4111L19.1875 14.8465C19.1512 14.9826 19.0787 15.1731 19.1331 15.3182C19.2057 15.5087 19.4324 15.6176 19.6683 15.4724L20.3578 15.0461C20.4938 14.9644 20.4666 14.9554 20.5301 15.0007C20.7569 15.1459 20.9837 15.2729 21.2105 15.418C21.3194 15.4906 21.4464 15.5813 21.6187 15.5178C21.7366 15.4724 21.8455 15.3545 21.8546 15.1912C21.8546 15.1005 21.782 14.8465 21.7548 14.7467C21.7185 14.5925 21.6822 14.4474 21.6459 14.3022C21.6006 14.1208 21.6731 14.0936 21.8274 13.9666C21.9634 13.8486 22.1449 13.6853 22.2809 13.5855C22.3263 13.5493 22.3807 13.4948 22.417 13.4495C22.5077 13.3225 22.4896 13.141 22.408 13.0322C22.2991 12.8961 22.1539 12.9052 21.9997 12.887C21.909 12.887 21.2831 12.8417 21.2286 12.8235C21.1651 12.7963 21.1379 12.7419 21.1107 12.6693L20.7841 11.8801C20.7297 11.7712 20.5936 11.6714 20.4213 11.7077Z" fill="#888888"/>
</g>
<defs>
<clipPath id="clip0_1_51">
<rect width="30" height="30" fill="white" transform="translate(0.499878 -1.37921)"/>
</clipPath>
</defs>
</svg>
