<svg width="25" height="26" viewBox="0 0 25 26" fill="none" xmlns="http://www.w3.org/2000/svg">
<g clip-path="url(#clip0_1_46)">
<path d="M21.4516 19.8372C20.847 18.9317 19.9287 18.431 19.0657 18.1056C18.6333 17.9429 18.2099 17.8229 17.8373 17.7207C17.4654 17.6196 17.1418 17.5343 16.9245 17.4524C16.5441 17.311 16.1424 17.1283 15.8622 16.9314C15.7222 16.8337 15.6143 16.733 15.5516 16.6472C15.4884 16.5598 15.4714 16.4992 15.4706 16.4461C15.4706 16.1434 15.4706 15.7806 15.4706 15.3239C16.0593 15.9576 17.2808 17.0072 18.67 16.6451C17.7774 15.7911 17.8799 12.7033 17.871 11.3762C18.0339 11.0571 18.1809 10.6551 18.3367 10.1099C18.4191 9.8216 18.4571 9.57077 18.4571 9.34719C18.4575 9.09001 18.4046 8.86643 18.3073 8.68518C18.2736 8.62151 18.2338 8.56555 18.1921 8.51482C19.039 7.29543 18.5581 0.27634 13.7267 0.224582C8.92619 -0.396414 5.93258 1.69309 6.75167 8.55476C6.75866 8.56106 6.76534 8.56946 6.77213 8.57575C6.74572 8.61286 6.7153 8.64328 6.69269 8.68523C6.59547 8.86648 6.54225 9.09006 6.54259 9.34724C6.54279 9.57082 6.58087 9.82165 6.66329 10.11C6.81881 10.6523 6.96403 11.0554 7.12692 11.3738C7.11798 12.6995 7.2212 15.7911 6.32814 16.6452C7.71891 17.0077 8.94142 15.9555 9.52941 15.3216C9.52941 15.7792 9.52941 16.1427 9.52941 16.4461C9.52941 16.4912 9.51154 16.556 9.44176 16.6487C9.33942 16.7862 9.12736 16.953 8.87545 17.0945C8.62428 17.2376 8.33541 17.3611 8.08258 17.4503C7.78571 17.5552 7.30758 17.6651 6.77174 17.8183C5.96666 18.0514 5.01495 18.3865 4.24069 19.0506C3.85407 19.3827 3.51466 19.7997 3.27604 20.3179C3.03707 20.8357 2.90006 21.4512 2.90045 22.1713C2.90045 22.3385 2.90778 22.511 2.92301 22.6898C2.93385 22.8154 2.98141 22.9169 3.03742 23.0005C3.14396 23.1576 3.28532 23.2738 3.46237 23.3931C3.77238 23.5982 4.20201 23.7989 4.75187 23.9956C6.39791 24.5827 9.12301 25.1201 12.4999 25.1208C15.2436 25.1208 17.5595 24.7647 19.2123 24.3175C20.0393 24.0932 20.6995 23.848 21.1766 23.6027C21.4155 23.4792 21.6089 23.3571 21.7619 23.2234C21.8387 23.1559 21.9059 23.0849 21.9626 23.0006C22.0182 22.9169 22.0661 22.8155 22.077 22.6898C22.0919 22.5117 22.0992 22.3392 22.0992 22.1727C22.1006 21.2126 21.854 20.439 21.4516 19.8372ZM6.01007 23.6048C6.00148 23.6027 5.99113 23.6003 5.98258 23.5978C5.19308 23.3843 4.57184 23.1499 4.16456 22.9397C3.96163 22.8354 3.81202 22.7364 3.72931 22.6633C3.69396 22.6325 3.67404 22.6091 3.66422 22.5954C3.6527 22.4484 3.64606 22.3064 3.64606 22.1713C3.64728 21.3347 3.85177 20.7238 4.16793 20.2445C4.61998 19.5601 5.33375 19.1311 6.08805 18.8337C6.12062 18.9891 6.1507 19.163 6.17521 19.3575C6.23121 19.7963 6.26461 20.3242 6.26461 20.8995C6.26461 21.7434 6.18644 22.6881 6.01007 23.6048ZM17.532 8.91477C17.5347 8.91653 17.538 8.91755 17.5406 8.91897C17.5833 8.9466 17.6179 8.97844 17.6498 9.03689C17.6813 9.09568 17.7113 9.18835 17.712 9.34724C17.712 9.4844 17.6877 9.66882 17.62 9.90564C17.4145 10.6296 17.2301 11.0505 17.061 11.2842C16.9764 11.4024 16.8989 11.4763 16.8128 11.5364C16.7318 11.5924 16.6375 11.6372 16.5192 11.6809C16.6963 10.9029 17.0723 9.46272 17.532 8.91477ZM8.50216 11.6897C8.37252 11.6435 8.2735 11.5963 8.18727 11.5365C8.05973 11.4462 7.9443 11.3238 7.80919 11.0722C7.67589 10.822 7.53453 10.448 7.38009 9.90564C7.31222 9.66877 7.2881 9.48435 7.2881 9.34724C7.2881 9.29724 7.2921 9.25525 7.29733 9.21745C7.82428 9.99626 8.29645 11.0624 8.56115 11.7111L8.50216 11.6897ZM12.4999 21.7875L8.6545 18.0276C8.95192 17.9044 9.263 17.749 9.53766 17.5584C9.72589 17.4268 9.8984 17.2792 10.0354 17.0993C10.1708 16.9219 10.2747 16.7001 10.2747 16.4461C10.2747 16.0507 10.2747 15.5567 10.2747 14.8789V14.7358L10.179 14.6295C9.69723 14.0931 9.05885 13.3839 8.78947 12.1747L8.98278 7.7927L9.88654 6.2112C9.88654 6.2112 12.9363 9.37419 15.9859 9.14812L16.3464 11.744L16.2937 11.7629L16.2564 11.9763C16.0178 13.3122 15.3294 14.0634 14.8212 14.6295L14.7255 14.7359V14.879C14.7255 15.5567 14.7255 16.0508 14.7255 16.4461C14.7248 16.6921 14.8205 16.9129 14.9511 17.0892C15.1497 17.3551 15.4251 17.5521 15.7249 17.7242C15.9258 17.8383 16.1385 17.9342 16.3503 18.023L12.4999 21.7875ZM21.3355 22.5943L21.3034 22.6324C21.2485 22.6881 21.1376 22.7717 20.9817 22.8602C20.5813 23.0911 19.8943 23.3605 18.9896 23.6044C18.8132 22.6877 18.7351 21.743 18.7354 20.8994C18.7351 20.3242 18.7685 19.7962 18.8249 19.3575C18.8486 19.1675 18.878 18.9974 18.9095 18.8446C19.3999 19.0381 19.8778 19.2864 20.2716 19.6244C20.5894 19.8966 20.8554 20.2231 21.0464 20.6345C21.2367 21.046 21.3537 21.5457 21.3537 22.1726C21.3537 22.3067 21.347 22.448 21.3355 22.5943Z" fill="#888888"/>
<path d="M10.7962 17.3228V19.4407L12.5122 18.6738L14.2284 19.4407V17.3228L12.5122 18.0894L10.7962 17.3228Z" fill="#888888"/>
</g>
<defs>
<clipPath id="clip0_1_46">
<rect width="25" height="25" fill="white" transform="translate(-0.00012207 0.120789)"/>
</clipPath>
</defs>
</svg>
