<svg width="26" height="26" viewBox="0 0 26 26" fill="none" xmlns="http://www.w3.org/2000/svg">
<path d="M22.9345 12.6718L24.8659 9.77196C24.9552 9.6293 25.0116 9.46859 25.0313 9.30144C25.0509 9.13428 25.0333 8.96484 24.9796 8.80535C24.9307 8.64428 24.843 8.49775 24.7241 8.37873C24.6052 8.25971 24.4588 8.17189 24.2979 8.12303L20.9463 6.75839L20.6623 3.40366C20.6572 3.24195 20.6193 3.08296 20.551 2.93634C20.4826 2.78973 20.3852 2.65855 20.2647 2.55077C20.1266 2.45195 19.9683 2.38534 19.8011 2.35582C19.634 2.3263 19.4624 2.33463 19.299 2.38019L15.7202 3.11936L13.3912 0.503813C13.1598 0.287982 12.8553 0.167969 12.5391 0.167969C12.2228 0.167969 11.9183 0.287982 11.687 0.503813L9.35793 3.11936L5.77916 2.38019C5.61569 2.33463 5.44409 2.3263 5.27698 2.35582C5.10987 2.38534 4.95148 2.45195 4.81346 2.55077C4.69291 2.65855 4.5955 2.78973 4.52714 2.93634C4.45879 3.08296 4.42091 3.24195 4.41582 3.40366L4.13179 6.75839L0.780242 8.12303C0.619327 8.17189 0.472934 8.25971 0.354031 8.37873C0.235127 8.49775 0.147383 8.64428 0.0985715 8.80535C0.0448647 8.96484 0.0271975 9.13428 0.0468444 9.30144C0.0664913 9.46859 0.122962 9.6293 0.212183 9.77196L2.14358 12.6718L0.212183 15.5717C0.126484 15.7141 0.0730487 15.8737 0.0556457 16.0391C0.0382426 16.2045 0.0572948 16.3717 0.111459 16.5289C0.165624 16.6862 0.253582 16.8296 0.369134 16.9491C0.484686 17.0686 0.62502 17.1613 0.780242 17.2206L4.13179 18.5852L4.41582 21.94C4.42091 22.1017 4.45879 22.2607 4.52714 22.4073C4.5955 22.5539 4.69291 22.6851 4.81346 22.7929C4.95148 22.8917 5.10987 22.9583 5.27698 22.9878C5.44409 23.0173 5.61569 23.009 5.77916 22.9634L9.35793 22.2243L11.687 24.783C11.7936 24.904 11.9247 25.0009 12.0716 25.0673C12.2185 25.1336 12.3779 25.168 12.5391 25.168C12.7003 25.168 12.8596 25.1336 13.0065 25.0673C13.1534 25.0009 13.2845 24.904 13.3912 24.783L15.7202 22.2243L19.299 22.9634C19.4624 23.009 19.634 23.0173 19.8011 22.9878C19.9683 22.9583 20.1266 22.8917 20.2647 22.7929C20.3852 22.6851 20.4826 22.5539 20.551 22.4073C20.6193 22.2607 20.6572 22.1017 20.6623 21.94L20.9463 18.5852L24.2979 17.2206C24.4531 17.1613 24.5934 17.0686 24.709 16.9491C24.8245 16.8296 24.9125 16.6862 24.9667 16.5289C25.0208 16.3717 25.0399 16.2045 25.0225 16.0391C25.0051 15.8737 24.9516 15.7141 24.8659 15.5717L22.9345 12.6718ZM9.13071 16.7089L6.74486 14.8893L6.12 14.3776H6.06319L6.40403 15.1736L7.36973 17.448L6.1768 17.9029L4.1886 13.013L5.38152 12.5581L7.82417 14.3776L8.44904 14.8893C8.35048 14.6363 8.23666 14.3894 8.1082 14.1502L7.19931 11.8189L8.39223 11.3072L10.3804 16.1971L9.13071 16.7089ZM11.0053 15.9697L9.0171 11.0229L12.7663 9.54452L13.1639 10.568L10.6645 11.5346L11.0053 12.4444L13.1639 11.5346L13.5616 12.5012L11.4029 13.3541L11.8006 14.4345L14.3569 13.411L14.7545 14.4345L11.0053 15.9697ZM18.9013 12.7287L17.4244 10.6249L16.9131 9.77196H16.8563C16.9511 10.0894 17.027 10.4122 17.0835 10.7386L17.538 13.2973L16.3451 13.809L12.9935 9.4308L14.2432 8.91907L15.5498 10.7954L16.2883 11.9326C16.1899 11.501 16.114 11.0644 16.061 10.6249L15.6634 8.35047L16.7995 7.89559L18.106 9.82882L18.7877 10.9092C18.7877 10.9092 18.6741 10.1131 18.5605 9.54452L18.2197 7.32699L19.4126 6.81525L20.0942 12.2738L18.9013 12.7287Z" fill="#888888"/>
</svg>
