<svg width="26" height="26" viewBox="0 0 26 26" fill="none" xmlns="http://www.w3.org/2000/svg">
<g clip-path="url(#clip0_1_18)">
<path d="M22.7476 8.34788C23.0585 8.34788 23.3399 8.22192 23.5437 8.01812C23.7475 7.81431 23.8735 7.53291 23.8735 7.22198C23.8735 6.60018 23.3694 6.09637 22.7476 6.09637C22.1258 6.09637 21.6217 6.60047 21.6217 7.22198C21.6217 7.84379 22.1257 8.34788 22.7476 8.34788Z" fill="#888888"/>
<path d="M6.38768 20.1442C5.80539 20.1442 5.33356 20.6164 5.33356 21.1984C5.33356 21.7803 5.80569 22.2525 6.38768 22.2525C6.96968 22.2525 7.44181 21.7806 7.44181 21.1984C7.44181 20.6161 6.96998 20.1442 6.38768 20.1442Z" fill="#888888"/>
<path d="M22.2446 8.9577V18.041H23.2509V8.9577C23.0988 9.03435 22.9297 9.08153 22.7478 9.08153C22.5658 9.08153 22.3967 9.03405 22.2446 8.9577Z" fill="#888888"/>
<path d="M15.1011 20.1442C14.5188 20.1442 14.0469 20.6164 14.0469 21.1984C14.0469 21.7803 14.5188 22.2525 15.1011 22.2525C15.6834 22.2525 16.1552 21.7806 16.1552 21.1984C16.1551 20.6161 15.6833 20.1442 15.1011 20.1442Z" fill="#888888"/>
<path d="M20.2287 1.31122H1.08853C0.763335 1.31122 0.499878 1.57468 0.499878 1.89987V23.9258C0.499878 24.4781 0.947593 24.9258 1.49988 24.9258H19.8177C20.3699 24.9258 20.8177 24.4781 20.8177 23.9258V1.89987C20.8174 1.57468 20.5539 1.31122 20.2287 1.31122ZM14.2557 2.74687C14.7452 2.74687 15.1419 3.14354 15.1419 3.63308C15.1419 4.12262 14.7452 4.51929 14.2557 4.51929C13.7662 4.51929 13.3695 4.12262 13.3695 3.63308C13.3695 3.14354 13.7662 2.74687 14.2557 2.74687ZM10.7444 2.04835C11.6193 2.04835 12.3288 2.7578 12.3288 3.63272C12.3288 4.50765 11.6193 5.21709 10.7444 5.21709C9.86949 5.21709 9.16005 4.50765 9.16005 3.63272C9.16005 2.7578 9.86949 2.04835 10.7444 2.04835ZM7.23314 2.74687C7.72262 2.74687 8.11935 3.14354 8.11935 3.63308C8.11935 4.12262 7.72262 4.51929 7.23314 4.51929C6.74365 4.51929 6.34692 4.12262 6.34692 3.63308C6.34728 3.14354 6.74395 2.74687 7.23314 2.74687ZM6.38768 22.8651C5.46802 22.8651 4.72268 22.1197 4.72268 21.2001C4.72268 20.2804 5.46832 19.5351 6.38768 19.5351C7.30735 19.5351 8.05268 20.2807 8.05268 21.2001C8.05268 22.1194 7.30735 22.8651 6.38768 22.8651ZM10.7444 22.8651C9.82475 22.8651 9.07942 22.1197 9.07942 21.2001C9.07942 20.2804 9.82475 19.5351 10.7444 19.5351C11.6641 19.5351 12.4094 20.2807 12.4094 21.2001C12.4094 22.1194 11.6641 22.8651 10.7444 22.8651ZM15.1012 22.8651C14.1815 22.8651 13.4362 22.1197 13.4362 21.2001C13.4362 20.2804 14.1815 19.5351 15.1012 19.5351C16.0208 19.5351 16.7662 20.2807 16.7662 21.2001C16.7661 22.1194 16.0208 22.8651 15.1012 22.8651ZM19.5327 17.2796H2.95614C2.40386 17.2796 1.95614 16.8319 1.95614 16.2796V7.02475C1.95614 6.47247 2.40386 6.02475 2.95614 6.02475H18.5326C19.0849 6.02475 19.5326 6.47247 19.5326 7.02475V17.2796C19.5326 17.2796 19.5327 17.2796 19.5327 17.2796Z" fill="#888888"/>
<path d="M10.7444 20.1442C10.1621 20.1442 9.69025 20.6164 9.69025 21.1984C9.69025 21.7803 10.1624 22.2525 10.7444 22.2525C11.3267 22.2525 11.7985 21.7806 11.7985 21.1984C11.7985 20.6161 11.3267 20.1442 10.7444 20.1442Z" fill="#888888"/>
<path d="M23.1588 18.6403H21.4691V23.3231H23.1588C24.452 23.3231 25.5001 22.2748 25.5001 20.9818C25.5003 19.6887 24.452 18.6403 23.1588 18.6403Z" fill="#888888"/>
<path fill-rule="evenodd" clip-rule="evenodd" d="M8.66585 7.04169C8.48101 7.04169 8.33118 7.19152 8.33118 7.37636V15.9105C8.33118 16.0953 8.48101 16.2452 8.66585 16.2452H12.548C12.7329 16.2452 12.8827 16.0953 12.8827 15.9105V7.37636C12.8827 7.19152 12.7329 7.04169 12.548 7.04169H8.66585ZM9.3434 11.9367C9.35855 11.7989 9.44093 11.6772 9.56308 11.612C9.45135 11.5441 9.3898 11.4176 9.40306 11.2874L9.47597 10.4984C9.50059 10.287 9.67861 10.1256 9.89261 10.1227H11.5971C11.6122 10.1227 11.6274 10.1227 11.6425 10.1246C11.8291 10.1444 11.9645 10.3124 11.9436 10.4984L11.8707 11.2874C11.8556 11.4252 11.7732 11.5469 11.651 11.612C11.7628 11.68 11.8253 11.8065 11.8111 11.9367L11.7382 12.7257C11.7135 12.9371 11.5355 13.0985 11.3215 13.1013H9.61706C9.60191 13.1013 9.58676 13.1013 9.57161 13.0994C9.38506 13.0796 9.24965 12.9116 9.27049 12.7257L9.3434 11.9367ZM10.2117 11.8527C10.1227 11.8508 10.0451 11.915 10.0309 12.0028L10.0015 12.318C10.0009 12.3218 10.0011 12.326 10.0013 12.3301L10.0015 12.3359C10.0072 12.4142 10.0763 12.4737 10.1549 12.468H10.903C10.992 12.4709 11.0696 12.4058 11.0838 12.318L11.1132 12.0028C11.1138 11.999 11.1136 11.9947 11.1134 11.9906L11.1132 11.9848C11.1075 11.9055 11.0384 11.847 10.9598 11.8527H10.2117ZM10.3149 10.739C10.2259 10.7371 10.1483 10.8013 10.1341 10.8891L10.1047 11.2043C10.1041 11.2081 10.1043 11.2124 10.1045 11.2165L10.1047 11.2222C10.1104 11.3015 10.1795 11.36 10.2581 11.3544H11.0062C11.0952 11.3572 11.1728 11.2921 11.187 11.2043L11.2164 10.8891C11.217 10.8853 11.2168 10.8811 11.2166 10.877V10.877L11.2164 10.8712C11.2107 10.7919 11.1416 10.7334 11.063 10.739H10.3149ZM10.4035 14.2899C10.5162 14.1923 10.6835 14.1923 10.7963 14.2899L11.7237 15.093C11.9336 15.2749 11.805 15.6198 11.5273 15.6198H9.67249C9.39473 15.6198 9.26613 15.2749 9.4761 15.093L10.4035 14.2899ZM10.7963 8.94973C10.6835 9.04736 10.5162 9.04736 10.4035 8.94973L9.4761 8.14659C9.26613 7.96475 9.39473 7.61981 9.67249 7.61981H11.5273C11.805 7.61981 11.9336 7.96475 11.7237 8.14659L10.7963 8.94973Z" fill="#888888"/>
<path fill-rule="evenodd" clip-rule="evenodd" d="M14.2882 7.04169C14.1033 7.04169 13.9535 7.19152 13.9535 7.37636V15.9105C13.9535 16.0953 14.1033 16.2452 14.2882 16.2452H18.1704C18.3552 16.2452 18.505 16.0953 18.505 15.9105V7.37636C18.505 7.19152 18.3552 7.04169 18.1704 7.04169H14.2882ZM14.9657 11.9367C14.9809 11.7989 15.0632 11.6772 15.1854 11.612C15.0737 11.5441 15.0121 11.4176 15.0254 11.2874L15.0983 10.4984C15.1229 10.287 15.3009 10.1256 15.5149 10.1227H17.2194C17.2345 10.1227 17.2497 10.1227 17.2648 10.1246C17.4514 10.1444 17.5868 10.3124 17.5659 10.4984L17.493 11.2874C17.4779 11.4252 17.3955 11.5469 17.2733 11.612C17.3851 11.68 17.4476 11.8065 17.4334 11.9367L17.3605 12.7257C17.3358 12.9371 17.1578 13.0985 16.9438 13.1013H15.2394C15.2242 13.1013 15.2091 13.1013 15.1939 13.0994C15.0074 13.0796 14.872 12.9116 14.8928 12.7257L14.9657 11.9367ZM15.834 11.8527C15.745 11.8508 15.6674 11.915 15.6532 12.0028L15.6238 12.318C15.6232 12.3218 15.6234 12.326 15.6236 12.3301L15.6238 12.3359C15.6295 12.4142 15.6986 12.4737 15.7772 12.468H16.5253C16.6143 12.4709 16.6919 12.4058 16.7061 12.318L16.7355 12.0028C16.7361 11.999 16.7359 11.9947 16.7357 11.9906L16.7355 11.9848C16.7298 11.9055 16.6607 11.847 16.5821 11.8527H15.834ZM15.9373 10.739C15.8482 10.7371 15.7706 10.8013 15.7564 10.8891L15.727 11.2043C15.7264 11.2081 15.7266 11.2124 15.7268 11.2165L15.727 11.2222C15.7327 11.3015 15.8018 11.36 15.8804 11.3544H16.6285C16.7175 11.3572 16.7952 11.2921 16.8094 11.2043L16.8387 10.8891C16.8394 10.8853 16.8391 10.8811 16.8389 10.877V10.877L16.8387 10.8712C16.833 10.7919 16.7639 10.7334 16.6853 10.739H15.9373ZM16.1035 14.2899C16.2162 14.1923 16.3835 14.1923 16.4963 14.2899L17.4237 15.093C17.6336 15.2749 17.505 15.6198 17.2273 15.6198H15.3725C15.0947 15.6198 14.9661 15.2749 15.1761 15.093L16.1035 14.2899ZM16.4963 8.94973C16.3835 9.04736 16.2162 9.04736 16.1035 8.94973L15.1761 8.14659C14.9661 7.96475 15.0947 7.61981 15.3725 7.61981H17.2273C17.505 7.61981 17.6336 7.96475 17.4237 8.14659L16.4963 8.94973Z" fill="#888888"/>
<path fill-rule="evenodd" clip-rule="evenodd" d="M3.00984 7.04169C2.82501 7.04169 2.67517 7.19152 2.67517 7.37636V15.9105C2.67517 16.0953 2.82501 16.2452 3.00984 16.2452H6.89204C7.07687 16.2452 7.22671 16.0953 7.22671 15.9105V7.37636C7.22671 7.19152 7.07687 7.04169 6.89204 7.04169H3.00984ZM5.19627 14.2899C5.08354 14.1923 4.91621 14.1923 4.80348 14.2899L3.8761 15.093C3.66613 15.2749 3.79473 15.6198 4.07249 15.6198H5.92726C6.20503 15.6198 6.33363 15.2749 6.12366 15.093L5.19627 14.2899ZM4.80348 8.94973C4.91621 9.04736 5.08354 9.04736 5.19627 8.94973L6.12366 8.14659C6.33363 7.96475 6.20503 7.61981 5.92726 7.61981H4.07249C3.79473 7.61981 3.66613 7.96475 3.8761 8.14659L4.80348 8.94973ZM6.32042 10.786L4.75759 10.7928C4.63187 10.8216 4.53854 10.9304 4.52902 11.0622C4.50711 11.269 4.50521 11.4537 4.50521 11.4537L6.22899 11.4431L6.18994 12.0714L4.47854 12.08L4.42616 13.1306L3.54523 13.1258L3.64808 10.9169C3.64808 10.9169 3.70522 10.2117 4.35855 10.1617L4.58426 10.1607L6.38994 10.152L6.32042 10.786Z" fill="#888888"/>
</g>
<defs>
<clipPath id="clip0_1_18">
<rect width="25" height="25" fill="white" transform="translate(0.499878 0.620789)"/>
</clipPath>
</defs>
</svg>
