<svg width="22" height="26" viewBox="0 0 22 26" fill="none" xmlns="http://www.w3.org/2000/svg">
<path d="M12.5405 24.872C16.4479 24.0887 21.5 21.2779 21.5 14.0094C21.5 7.39486 16.6584 2.99027 13.1769 0.966424C12.4044 0.517324 11.5 1.10794 11.5 2.00151V4.28711C11.5 6.08944 10.7423 9.37925 8.63665 10.7476C7.56165 11.4462 6.40065 10.4006 6.27 9.12521L6.16271 8.07791C6.038 6.8604 4.79801 6.1213 3.82495 6.86361C2.07684 8.19716 0.25 10.5324 0.25 14.0094C0.25 22.8982 6.86111 25.1205 10.1666 25.1205C10.3589 25.1205 10.561 25.1147 10.7714 25.1026C9.13912 24.9631 6.5 23.9504 6.5 20.6756C6.5 18.114 8.36884 16.381 9.78875 15.5386C10.1706 15.312 10.6176 15.6062 10.6176 16.0502V16.7867C10.6176 17.3504 10.8356 18.2315 11.3545 18.8346C11.9418 19.5171 12.8036 18.8021 12.8731 17.9045C12.8951 17.6214 13.1799 17.4409 13.4251 17.5842C14.2268 18.0527 15.25 19.0535 15.25 20.6756C15.25 23.2356 13.8388 24.4132 12.5405 24.872Z" fill="#888888"/>
</svg>
