<svg width="19" height="20" viewBox="0 0 19 20" fill="none" xmlns="http://www.w3.org/2000/svg">
<path d="M12.2 2.42109V6.02109H10.7789V2.42109C10.7789 2.1653 10.5516 2.04215 10.4 2.04215C10.3526 2.04215 10.3053 2.05162 10.2579 2.07057L2.74526 4.9032C2.24316 5.09267 1.92105 5.56636 1.92105 6.10636V6.74109C1.05895 7.3853 0.5 8.41794 0.5 9.5832V6.10636C0.5 4.97899 1.19158 3.97478 2.24316 3.57688L9.76526 0.734778C9.97368 0.658989 10.1916 0.621094 10.4 0.621094C11.3474 0.621094 12.2 1.38846 12.2 2.42109ZM18.5 12.4158V13.3632C18.5 13.4872 18.4514 13.6063 18.3646 13.6948C18.2778 13.7834 18.1598 13.8344 18.0358 13.8369H16.6526C16.1505 13.8369 15.6958 13.4674 15.6579 12.9748C15.6295 12.6811 15.7432 12.4064 15.9326 12.2169C16.0184 12.128 16.1215 12.0578 16.2356 12.0105C16.3497 11.9633 16.4723 11.94 16.5958 11.9421H18.0263C18.3011 11.9516 18.5 12.16 18.5 12.4158Z" fill="#888888"/>
<path d="M16.5863 10.9474H17.5526C18.0737 10.9474 18.5 10.5211 18.5 10V9.5832C18.5 7.62215 16.8989 6.02109 14.9379 6.02109H4.06211C3.25684 6.02109 2.51789 6.28636 1.92105 6.74109C1.05895 7.3853 0.5 8.41794 0.5 9.5832V15.959C0.5 17.92 2.10105 19.5211 4.06211 19.5211H14.9379C16.8989 19.5211 18.5 17.92 18.5 15.959V15.779C18.5 15.2579 18.0737 14.8316 17.5526 14.8316H16.7284C15.8189 14.8316 14.9474 14.2727 14.7105 13.3916C14.5116 12.6716 14.7484 11.98 15.2221 11.5158C15.5726 11.1558 16.0558 10.9474 16.5863 10.9474ZM11.3947 10.7579H4.76316C4.37474 10.7579 4.05263 10.4358 4.05263 10.0474C4.05263 9.65899 4.37474 9.33688 4.76316 9.33688H11.3947C11.7832 9.33688 12.1053 9.65899 12.1053 10.0474C12.1053 10.4358 11.7832 10.7579 11.3947 10.7579Z" fill="#888888"/>
</svg>
